<!DOCTYPE svg PUBLIC "-//W3C//DTD SVG 1.1//EN" "http://www.w3.org/Graphics/SVG/1.1/DTD/svg11.dtd">
<!-- Uploaded to: SVG Repo, www.svgrepo.com, Transformed by: SVG Repo Mixer Tools -->
<svg width="203px" height="203px" viewBox="-3.2 -3.2 38.40 38.40" xmlns="http://www.w3.org/2000/svg" fill="#051b35" stroke="#051b35" stroke-width="0.00032" transform="rotate(0)">
<g id="SVGRepo_bgCarrier" stroke-width="0" transform="translate(4.48,4.48), scale(0.72)">
<path transform="translate(-3.2, -3.2), scale(1.2)" d="M16,30.443360906878585C20.042348074929123,30.5920185001004,24.255205710356364,29.97190112740948,27.21932154552711,27.21932154552711C30.273316885641538,24.383276774058633,32.11688936120177,20.129460613513857,31.553335881350854,16C31.035640059944033,12.206563208791303,27.64309820401796,9.696552721384567,24.524811120984587,7.475188879015414C22.013104156885433,5.685932507132817,19.06823787410063,5.230203194197011,16,4.920321626882805C12.393801408440618,4.556107860723533,8.484501536797708,3.4189079210324027,5.559785981478994,5.55978598147899C2.358818256424462,7.90287933368708,0.8605350680487109,12.033103149261382,0.8637303149229609,15.999999999999996C0.8669232142149326,19.963982328914515,2.7087583159651736,23.686859758369778,5.576591164023371,26.423408835976623C8.377333358766048,29.095938538963733,12.131365704433787,30.301091648325354,16,30.443360906878585" fill="#EEAC00" strokewidth="0"/>
</g>
<g id="SVGRepo_tracerCarrier" stroke-linecap="round" stroke-linejoin="round" stroke="#CCCCCC" stroke-width="0.44800000000000006"/>
<g id="SVGRepo_iconCarrier">
<path d="m16 0c8.836556 0 16 7.163444 16 16s-7.163444 16-16 16-16-7.163444-16-16 7.163444-16 16-16zm5.7279221 11-7.0710679 7.0710678-4.2426406-4.2426407-1.4142136 1.4142136 5.6568542 5.6568542 8.4852814-8.4852813z" fill="#051b35" fill-rule="evenodd"/>
</g>
</svg>